<svg width="20" height="20" viewBox="0 0 20 20" fill="none" xmlns="http://www.w3.org/2000/svg">
<path d="M11.9573 9.99914L17.9246 4.04571C18.1859 3.7844 18.3327 3.42997 18.3327 3.06042C18.3327 2.69086 18.1859 2.33643 17.9246 2.07512C17.6632 1.8138 17.3088 1.66699 16.9393 1.66699C16.5697 1.66699 16.2153 1.8138 15.954 2.07512L10.0005 8.04242L4.04711 2.07512C3.78579 1.8138 3.43137 1.66699 3.06181 1.66699C2.69225 1.66699 2.33783 1.8138 2.07651 2.07512C1.81519 2.33643 1.66838 2.69086 1.66838 3.06042C1.66838 3.42997 1.81519 3.7844 2.07651 4.04571L8.04381 9.99914L2.07651 15.9526C1.94644 16.0816 1.8432 16.2351 1.77274 16.4042C1.70229 16.5733 1.66602 16.7547 1.66602 16.9379C1.66602 17.1211 1.70229 17.3025 1.77274 17.4716C1.8432 17.6407 1.94644 17.7942 2.07651 17.9232C2.20552 18.0532 2.359 18.1565 2.52811 18.2269C2.69722 18.2974 2.87861 18.3337 3.06181 18.3337C3.24501 18.3337 3.42639 18.2974 3.5955 18.2269C3.76461 18.1565 3.9181 18.0532 4.04711 17.9232L10.0005 11.9559L15.954 17.9232C16.083 18.0532 16.2365 18.1565 16.4056 18.2269C16.5747 18.2974 16.7561 18.3337 16.9393 18.3337C17.1225 18.3337 17.3038 18.2974 17.473 18.2269C17.6421 18.1565 17.7955 18.0532 17.9246 17.9232C18.0546 17.7942 18.1579 17.6407 18.2283 17.4716C18.2988 17.3025 18.3351 17.1211 18.3351 16.9379C18.3351 16.7547 18.2988 16.5733 18.2283 16.4042C18.1579 16.2351 18.0546 16.0816 17.9246 15.9526L11.9573 9.99914Z" fill="#7A7A7A"/>
</svg>
