<svg width="434" height="434" viewBox="0 0 434 434" fill="none" xmlns="http://www.w3.org/2000/svg">
<circle cx="217.143" cy="217" r="216.857" fill="#E5E6EB"/>
<mask id="mask0" mask-type="alpha" maskUnits="userSpaceOnUse" x="0" y="0" width="434" height="434">
<circle cx="217.143" cy="217" r="216.857" fill="#CECACA"/>
</mask>
<g mask="url(#mask0)">
<path d="M405.012 370.501C405.9 370.252 415.108 352.725 415.108 352.725C415.108 352.725 414.646 337.901 414.681 330.649C414.717 323.396 420.298 322.188 421.791 325.743C423.028 330.42 423.978 335.169 424.636 339.963C424.92 339.963 433.274 316.251 435.301 315.078C437.327 313.904 459.084 325.316 460.186 332.639C460.719 336.195 457.057 348.033 452.863 359.267C451.689 362.431 440.704 369.221 440.704 369.221C438.42 373.843 435.681 378.225 432.528 382.303L405.012 370.501Z" fill="#FFC9B0"/>
<path d="M432.67 385.787C432.193 385.787 431.722 385.69 431.283 385.503L403.661 373.771C403.113 373.538 402.632 373.17 402.263 372.702C401.895 372.234 401.649 371.68 401.55 371.093C401.451 370.505 401.501 369.902 401.696 369.339C401.891 368.776 402.224 368.271 402.665 367.87C403.803 366.306 407.927 358.805 411.553 351.872C411.553 348.317 411.126 336.87 411.162 330.542C411.197 324.214 414.717 320.979 417.774 320.339C419.265 320.027 420.817 320.247 422.162 320.962C423.507 321.676 424.558 322.84 425.133 324.25C425.498 325.062 425.784 325.907 425.986 326.774C430.892 314.367 432.137 312.554 433.843 311.807C434.945 311.238 436.616 310.385 444.508 314.509C448.703 316.642 462.497 324.25 463.67 331.964C464.416 336.87 460.115 350.13 456.133 360.405C454.853 363.96 447.921 368.759 443.406 371.638C441.093 376.231 438.305 380.568 435.087 384.579C434.472 385.284 433.603 385.719 432.67 385.787ZM410.38 368.901L431.71 377.895C433.98 374.589 436.023 371.133 437.825 367.55C438.117 366.969 438.575 366.486 439.14 366.164C443.065 363.901 446.655 361.101 449.805 357.845C455.493 342.7 457.164 334.737 456.915 332.96C456.346 329.085 442.695 320.588 437.185 318.739C435.301 322.295 431.674 332 430.075 335.91C427.551 342.487 427.231 343.34 424.564 343.234C421.898 343.127 421.187 340.745 420.689 337.19C420.291 333.979 419.685 330.796 418.876 327.663C418.422 328.539 418.213 329.522 418.272 330.507C418.272 337.617 418.699 352.299 418.699 352.477C418.73 353.082 418.595 353.685 418.308 354.219C414.504 361.578 412.122 366.093 410.38 368.901Z" fill="#093F68"/>
<path d="M431.212 360.155C430.305 360.157 429.432 359.812 428.771 359.19C428.11 358.569 427.712 357.719 427.657 356.813C427.604 351.507 425.692 346.387 422.254 342.344C421.592 341.678 421.22 340.777 421.22 339.838C421.22 338.899 421.592 337.998 422.254 337.332C422.918 336.68 423.812 336.315 424.742 336.315C425.673 336.315 426.566 336.68 427.231 337.332C432.021 342.604 434.725 349.442 434.838 356.564C434.84 357.471 434.495 358.345 433.874 359.006C433.252 359.667 432.402 360.065 431.497 360.119L431.212 360.155Z" fill="#093F68"/>
<path d="M443.264 388.134C439.709 393.395 410.593 442.775 368.359 463.43C357.575 468.775 345.699 471.549 333.662 471.535C324.419 471.535 312.332 464.745 301.987 457.777C296.37 453.902 291.322 449.992 287.767 447.112C284.212 444.232 282.292 442.348 282.292 442.348V461.368L282.079 533.642H153.884V435.416C122.244 443.699 94.195 455.36 88.8625 463.359C85.0586 471.784 91.5643 500.224 106.389 525.892L58.0759 553.55C51.2858 541.854 18.4372 481.027 38.9498 438.793C48.9394 418.245 74.2157 404.416 116.201 388.489C166.824 369.292 216.95 376.687 246.208 376.367C266.13 376.201 285.379 383.566 300.103 396.986C313.185 408.789 330.392 419.952 343.936 413.375C368.822 401.181 393.956 370.146 401.492 359.196L443.264 388.134Z" fill="#5784BA"/>
<path d="M58.1112 557.104C57.4883 557.111 56.8746 556.953 56.3318 556.647C55.789 556.341 55.3361 555.898 55.0184 555.362C47.9083 543.346 14.3843 481.204 35.75 437.229C46.664 414.761 74.1445 400.647 114.956 385.183C155.768 369.719 196.153 371.212 225.66 372.314C233.126 372.598 240.2 372.883 246.173 372.811C266.988 372.598 287.111 380.283 302.484 394.319C314.074 404.771 330.391 416.005 342.372 410.175C366.653 398.301 391.68 367.159 398.541 357.169C398.808 356.779 399.15 356.446 399.547 356.19C399.943 355.934 400.387 355.759 400.852 355.676C401.309 355.586 401.779 355.593 402.232 355.698C402.685 355.802 403.112 356 403.483 356.281L445.255 385.112C446.032 385.645 446.567 386.464 446.74 387.391C446.913 388.318 446.712 389.275 446.179 390.053C445.859 390.48 445.397 391.227 444.757 392.222C421.329 428.697 396.124 453.688 369.923 466.487C358.655 472.083 346.243 474.991 333.662 474.983C325.201 474.983 314.18 470.291 299.96 460.585C294.521 457.03 289.615 452.977 285.918 449.92L285.669 533.463C285.669 534.406 285.294 535.311 284.628 535.977C283.961 536.644 283.057 537.019 282.114 537.019H153.884C152.941 537.019 152.037 536.644 151.37 535.977C150.703 535.311 150.329 534.406 150.329 533.463V440.073C117.694 448.996 96.2212 459.412 91.9907 464.958C89.2889 471.89 94.7281 498.482 109.339 523.971C109.574 524.377 109.727 524.825 109.788 525.29C109.849 525.755 109.817 526.228 109.695 526.68C109.573 527.133 109.362 527.557 109.076 527.928C108.789 528.299 108.431 528.61 108.024 528.842L59.8532 556.607C59.3253 556.92 58.7251 557.092 58.1112 557.104ZM198.997 378.784C174.468 378.784 145.921 381.024 117.48 391.831C79.4059 406.264 52.0321 420.058 42.1491 440.322C23.734 478.218 50.2546 532.113 59.4266 548.679L101.412 524.469C88.1868 500.117 81.0057 471.997 85.6272 461.794C85.7007 461.617 85.7962 461.45 85.9116 461.296C92.5595 451.342 124.377 439.362 152.96 431.896C153.497 431.751 154.06 431.734 154.605 431.847C155.15 431.959 155.66 432.198 156.096 432.544C156.532 432.889 156.88 433.333 157.113 433.838C157.347 434.343 157.458 434.895 157.439 435.451V530.086H278.595L278.808 442.348C278.812 441.66 279.016 440.988 279.395 440.414C279.773 439.84 280.311 439.388 280.941 439.113C281.574 438.835 282.274 438.747 282.956 438.861C283.638 438.974 284.272 439.284 284.78 439.753C284.78 439.753 286.807 441.601 290.148 444.374C293.49 447.147 298.609 451.129 303.977 454.826C319.94 465.704 328.863 467.98 333.662 467.98C345.156 467.981 356.494 465.329 366.795 460.23C383.93 451.84 410.237 432.714 438.393 389.129L402.345 364.244C392.853 377.22 369.283 405.056 345.465 416.716C332.987 422.795 317.024 417.072 297.721 399.759C283.667 386.924 265.275 379.887 246.244 380.064C240.093 380.064 232.948 379.85 225.376 379.566C217.803 379.282 208.454 378.891 198.997 378.891V378.784Z" fill="#093F68"/>
<path d="M202.908 364.315H230.815V380.454C230.815 383.613 229.56 386.642 227.327 388.876C225.093 391.109 222.064 392.364 218.906 392.364H214.817C211.659 392.364 208.63 391.109 206.396 388.876C204.163 386.642 202.908 383.613 202.908 380.454V364.315Z" fill="#FFC9B0"/>
<path d="M219.048 395.919H214.817C210.716 395.919 206.783 394.29 203.882 391.389C200.982 388.489 199.353 384.556 199.353 380.454V364.315C199.353 363.372 199.728 362.468 200.394 361.801C201.061 361.134 201.965 360.76 202.908 360.76H230.815C231.758 360.76 232.662 361.134 233.329 361.801C233.996 362.468 234.37 363.372 234.37 364.315V380.454C234.37 384.531 232.761 388.443 229.891 391.339C227.022 394.236 223.125 395.881 219.048 395.919ZM206.463 367.87V380.454C206.463 382.67 207.343 384.795 208.91 386.362C210.477 387.929 212.602 388.809 214.817 388.809H219.048C221.264 388.809 223.389 387.929 224.955 386.362C226.522 384.795 227.402 382.67 227.402 380.454V367.87H206.463Z" fill="#093F68"/>
<path d="M118.192 291.472C118.192 291.472 93.3063 186.207 102.549 169.392C111.792 152.577 126.333 158.94 126.333 158.94C126.333 158.94 146.027 102.06 189.541 99.7846C233.055 97.5094 254.492 127.016 278.844 123.568C303.196 120.119 314.785 111.374 314.785 111.374C318.87 119.193 320.554 128.045 319.624 136.818C318.694 145.591 315.193 153.893 309.559 160.682C309.559 160.682 327.548 149.662 329.858 175.151C332.169 200.641 316.527 288.912 316.527 288.912L299.107 285.891L118.192 291.472Z" fill="#F4CFDF"/>
<path d="M118.191 295.027C117.375 295.049 116.575 294.789 115.928 294.29C115.28 293.791 114.824 293.085 114.636 292.29C112.041 281.376 89.7512 185.176 99.3142 167.686C106.424 154.71 117.089 153.181 124.199 154.603C129.212 142.125 149.618 98.3981 189.328 96.2651C214.213 94.9141 232.592 103.873 247.275 111.054C258.686 116.635 268.605 121.47 278.31 120.084C301.525 116.742 312.545 108.637 312.652 108.565C313.054 108.264 313.515 108.051 314.005 107.941C314.495 107.83 315.004 107.825 315.496 107.926C315.985 108.029 316.447 108.235 316.851 108.529C317.255 108.823 317.593 109.199 317.842 109.632C321.452 116.609 323.336 124.351 323.336 132.206C323.336 140.062 321.452 147.804 317.842 154.781C319.98 154.675 322.107 155.154 323.992 156.167C329.396 158.905 332.596 165.162 333.484 174.867C335.795 200.57 320.722 285.855 320.082 289.481C319.917 290.403 319.395 291.222 318.63 291.761C317.864 292.3 316.917 292.516 315.994 292.361L298.929 289.375L118.405 295.027H118.191ZM119.827 161.287C115.81 161.287 110.122 163.029 105.607 171.099C99.4564 182.226 111.508 247.354 120.929 287.81L298.929 282.264C299.177 282.229 299.428 282.229 299.676 282.264L313.541 284.682C316.42 268.115 328.223 197.406 326.232 175.471C325.628 168.361 323.708 164.024 320.686 162.495C319.133 162.007 317.493 161.863 315.878 162.071C314.264 162.28 312.714 162.837 311.336 163.704C310.622 164.139 309.778 164.308 308.951 164.182C308.124 164.056 307.369 163.642 306.817 163.014C306.265 162.385 305.952 161.583 305.933 160.747C305.915 159.911 306.192 159.095 306.715 158.443C311.547 152.722 314.71 145.781 315.857 138.381C317.005 130.982 316.093 123.409 313.221 116.493C302.642 122.072 291.139 125.686 279.27 127.158C267.29 128.865 256.518 123.603 244.075 117.489C229.393 110.379 212.826 102.166 189.648 103.268C149.085 105.437 129.816 159.474 129.603 160.149C129.445 160.612 129.192 161.037 128.862 161.398C128.532 161.759 128.13 162.048 127.683 162.247C127.235 162.442 126.751 162.543 126.261 162.543C125.772 162.543 125.288 162.442 124.839 162.247C123.24 161.627 121.542 161.302 119.827 161.287Z" fill="#093F68"/>
<path d="M136.749 314.971C151.808 314.971 164.016 304.45 164.016 291.472C164.016 278.494 151.808 267.974 136.749 267.974C121.69 267.974 109.482 278.494 109.482 291.472C109.482 304.45 121.69 314.971 136.749 314.971Z" fill="#FFC9B0"/>
<path d="M136.749 318.49C119.791 318.49 105.962 306.368 105.962 291.472C105.962 276.576 119.791 264.418 136.749 264.418C153.706 264.418 167.571 276.541 167.571 291.472C167.571 306.403 153.742 318.49 136.749 318.49ZM136.749 271.528C123.702 271.528 113.072 280.487 113.072 291.472C113.072 302.457 123.737 311.38 136.749 311.38C149.76 311.38 160.461 302.457 160.461 291.472C160.461 280.487 149.831 271.528 136.749 271.528Z" fill="#093F68"/>
<path d="M295.659 314.971C310.718 314.971 322.926 304.45 322.926 291.472C322.926 278.494 310.718 267.974 295.659 267.974C280.6 267.974 268.392 278.494 268.392 291.472C268.392 304.45 280.6 314.971 295.659 314.971Z" fill="#FFC9B0"/>
<path d="M295.659 318.49C278.666 318.49 264.837 306.368 264.837 291.472C264.837 276.576 278.666 264.418 295.659 264.418C312.652 264.418 326.445 276.541 326.445 291.472C326.445 306.403 312.581 318.49 295.659 318.49ZM295.659 271.528C282.576 271.528 271.947 280.487 271.947 291.472C271.947 302.457 282.612 311.38 295.659 311.38C308.706 311.38 319.335 302.457 319.335 291.472C319.335 280.487 308.706 271.528 295.659 271.528Z" fill="#093F68"/>
<path d="M216.915 368.012C195.135 367.984 174.256 359.312 158.865 343.901C143.474 328.49 134.829 307.6 134.829 285.82V209.706C134.829 209.706 144.996 231.037 175.143 202.17C262.704 246.537 299.214 209.706 299.214 209.706V285.82C299.214 296.622 297.084 307.319 292.947 317.298C288.81 327.277 282.746 336.343 275.103 343.976C267.459 351.61 258.386 357.662 248.401 361.786C238.417 365.91 227.717 368.026 216.915 368.012Z" fill="#FFC9B0"/>
<path d="M216.915 371.567C194.2 371.511 172.434 362.455 156.382 346.383C140.331 330.312 131.302 308.534 131.274 285.82V209.706C131.261 208.89 131.53 208.094 132.035 207.452C132.54 206.81 133.251 206.362 134.048 206.182C134.844 206.003 135.679 206.103 136.41 206.467C137.142 206.83 137.726 207.434 138.064 208.178C138.829 209.572 139.891 210.782 141.175 211.722C142.459 212.662 143.933 213.309 145.494 213.617C150.293 214.435 158.897 212.693 172.512 199.61C173.043 199.103 173.717 198.773 174.443 198.665C175.168 198.557 175.91 198.676 176.565 199.006C220.541 221.26 250.901 222.256 268.605 219.163C287.589 215.857 296.441 207.253 296.547 207.182C297.047 206.689 297.682 206.355 298.372 206.222C299.062 206.089 299.775 206.163 300.422 206.436C301.065 206.708 301.613 207.163 301.999 207.745C302.385 208.326 302.59 209.009 302.591 209.706V285.82C302.563 308.54 293.529 330.323 277.47 346.396C261.411 362.469 239.635 371.52 216.915 371.567ZM138.384 218.381V285.926C138.412 306.774 146.706 326.759 161.447 341.5C176.189 356.241 196.174 364.535 217.021 364.564C237.869 364.535 257.854 356.241 272.595 341.5C287.336 326.759 295.631 306.774 295.659 285.926V216.852C281.901 225.562 244.288 240.422 175.783 206.436C163.802 217.456 153.208 222.22 144.285 220.656C142.2 220.25 140.202 219.48 138.384 218.381Z" fill="#093F68"/>
<path d="M178.876 272.287C183.077 272.287 186.484 268.881 186.484 264.679C186.484 260.478 183.077 257.072 178.876 257.072C174.674 257.072 171.268 260.478 171.268 264.679C171.268 268.881 174.674 272.287 178.876 272.287Z" fill="#093F68"/>
<path d="M257.371 272.287C261.573 272.287 264.979 268.881 264.979 264.679C264.979 260.478 261.573 257.072 257.371 257.072C253.17 257.072 249.763 260.478 249.763 264.679C249.763 268.881 253.17 272.287 257.371 272.287Z" fill="#093F68"/>
<path d="M246.919 310.395C247.058 314.42 246.385 318.431 244.94 322.19C243.496 325.95 241.309 329.379 238.511 332.276C235.713 335.172 232.36 337.475 228.653 339.048C224.946 340.621 220.96 341.432 216.932 341.432C212.905 341.432 208.919 340.621 205.212 339.048C201.505 337.475 198.152 335.172 195.354 332.276C192.556 329.379 190.369 325.95 188.925 322.19C187.48 318.431 186.807 314.42 186.946 310.395H246.919Z" fill="white"/>
<path d="M216.915 343.954C208.02 343.945 199.493 340.405 193.208 334.113C186.922 327.82 183.391 319.289 183.391 310.395C183.391 309.452 183.765 308.548 184.432 307.881C185.099 307.214 186.003 306.84 186.946 306.84H246.919C247.862 306.84 248.766 307.214 249.433 307.881C250.1 308.548 250.474 309.452 250.474 310.395C250.474 319.296 246.939 327.832 240.645 334.125C234.351 340.419 225.815 343.954 216.915 343.954ZM190.75 313.95C191.595 320.296 194.715 326.118 199.531 330.336C204.347 334.553 210.531 336.878 216.932 336.878C223.334 336.878 229.518 334.553 234.334 330.336C239.15 326.118 242.27 320.296 243.115 313.95H190.75Z" fill="#093F68"/>
<path d="M216.595 293.83C214.046 293.82 211.502 293.606 208.987 293.19C208.52 293.108 208.074 292.936 207.674 292.681C207.274 292.427 206.928 292.097 206.655 291.709C206.383 291.321 206.19 290.883 206.087 290.421C205.983 289.958 205.972 289.48 206.054 289.013C206.136 288.546 206.309 288.1 206.563 287.7C206.817 287.3 207.147 286.954 207.535 286.681C207.923 286.409 208.361 286.216 208.824 286.113C209.286 286.009 209.764 285.998 210.231 286.08C213.508 286.638 216.847 286.734 220.15 286.364C218.846 280.606 216.727 275.064 213.857 269.905C213.43 269.074 213.348 268.108 213.627 267.217C213.907 266.325 214.526 265.579 215.351 265.141C216.185 264.703 217.159 264.614 218.059 264.894C218.959 265.174 219.711 265.8 220.15 266.634C223.705 273.175 228.931 284.907 226.62 290.026C226.297 290.768 225.809 291.426 225.193 291.95C224.577 292.473 223.849 292.849 223.065 293.048C220.946 293.56 218.775 293.822 216.595 293.83Z" fill="#093F68"/>
<path d="M221.963 395.422H213.253C209.915 395.422 207.209 398.127 207.209 401.465V405.731C207.209 409.069 209.915 411.775 213.253 411.775H221.963C225.301 411.775 228.006 409.069 228.006 405.731V401.465C228.006 398.127 225.301 395.422 221.963 395.422Z" fill="white"/>
<path d="M221.963 415.329H213.253C210.707 415.329 208.266 414.318 206.466 412.518C204.666 410.718 203.654 408.276 203.654 405.731V401.465C203.654 398.919 204.666 396.478 206.466 394.677C208.266 392.877 210.707 391.866 213.253 391.866H221.963C224.509 391.866 226.95 392.877 228.75 394.677C230.55 396.478 231.561 398.919 231.561 401.465V405.731C231.561 408.276 230.55 410.718 228.75 412.518C226.95 414.318 224.509 415.329 221.963 415.329ZM213.253 398.976C212.593 398.976 211.96 399.238 211.493 399.705C211.027 400.172 210.764 400.805 210.764 401.465V405.731C210.764 406.391 211.027 407.024 211.493 407.49C211.96 407.957 212.593 408.219 213.253 408.219H221.963C222.623 408.219 223.256 407.957 223.722 407.49C224.189 407.024 224.451 406.391 224.451 405.731V401.465C224.451 400.805 224.189 400.172 223.722 399.705C223.256 399.238 222.623 398.976 221.963 398.976H213.253Z" fill="#093F68"/>
<path d="M211.653 411.774L198.535 486.11L217.59 511.137L231.917 484.901L223.563 411.774H211.653Z" fill="white"/>
<path d="M217.626 514.693C217.074 514.693 216.529 514.565 216.036 514.318C215.542 514.071 215.113 513.713 214.782 513.271L195.691 488.386C195.115 487.584 194.872 486.59 195.016 485.613L208.134 411.348C208.278 410.514 208.715 409.758 209.367 409.217C210.018 408.676 210.842 408.385 211.689 408.398H223.705C224.584 408.392 225.433 408.713 226.09 409.297C226.746 409.881 227.163 410.688 227.26 411.562L235.579 484.653C235.663 485.391 235.514 486.137 235.152 486.786L220.932 513.022C220.649 513.543 220.241 513.985 219.745 514.308C219.248 514.631 218.678 514.824 218.088 514.871L217.626 514.693ZM202.375 485.222L217.199 504.632L228.326 484.191L220.47 415.33H214.711L202.375 485.222Z" fill="#093F68"/>
<path d="M153.884 453.723C152.941 453.723 152.037 453.349 151.37 452.682C150.704 452.016 150.329 451.111 150.329 450.168C150.329 435.948 150.649 412.45 150.329 410.139C150.137 409.23 150.309 408.282 150.807 407.498C151.306 406.714 152.091 406.156 152.995 405.944C153.458 405.834 153.938 405.818 154.407 405.897C154.875 405.976 155.323 406.148 155.725 406.404C156.126 406.659 156.471 406.992 156.741 407.383C157.012 407.774 157.2 408.216 157.297 408.681C157.759 410.708 157.617 432.393 157.297 450.275C157.271 451.175 156.904 452.032 156.27 452.672C155.637 453.312 154.784 453.688 153.884 453.723Z" fill="#093F68"/>
<path d="M282.363 445.902C281.42 445.902 280.516 445.528 279.849 444.861C279.183 444.194 278.808 443.29 278.808 442.347V414.085C278.808 413.142 279.183 412.238 279.849 411.571C280.516 410.904 281.42 410.53 282.363 410.53C283.306 410.53 284.21 410.904 284.877 411.571C285.544 412.238 285.918 413.142 285.918 414.085V442.347C285.918 443.29 285.544 444.194 284.877 444.861C284.21 445.528 283.306 445.902 282.363 445.902Z" fill="#093F68"/>
<path d="M268.107 440.357H246.777C245.834 440.357 244.93 439.983 244.263 439.316C243.596 438.65 243.222 437.745 243.222 436.802C243.222 435.86 243.596 434.955 244.263 434.289C244.93 433.622 245.834 433.247 246.777 433.247H268.107C269.05 433.247 269.954 433.622 270.621 434.289C271.288 434.955 271.662 435.86 271.662 436.802C271.662 437.745 271.288 438.65 270.621 439.316C269.954 439.983 269.05 440.357 268.107 440.357Z" fill="#093F68"/>
</g>
</svg>
